<?xml version="1.0" encoding="utf-8"?>
<!-- Generator: Adobe Illustrator 25.4.1, SVG Export Plug-In . SVG Version: 6.00 Build 0)  -->
<svg version="1.1" id="Layer_1" xmlns="http://www.w3.org/2000/svg" xmlns:xlink="http://www.w3.org/1999/xlink" x="0px" y="0px"
	 viewBox="0 0 68 67" style="enable-background:new 0 0 68 67;" xml:space="preserve">
<style type="text/css">
	.st0{fill:#FFFFFF;}
</style>
<g>
	<g>
		<path class="st0" d="M37.3,33.7c0,4.5,0,8.9,0,13.4c0,1.9,0,3.8,0,5.7c0,0.8-0.3,1-1.1,1c-2.2,0-4.4,0-6.6,0
			c-0.9,0-1.1-0.3-1.1-1.1c0-6,0-11.9,0-17.9c0-0.9-0.2-1.2-1.1-1c-0.8,0-1.5,0.1-2.3,0c-0.5,0-0.8-0.2-0.8-0.8c0-1.9,0-3.7,0-5.6
			c0-0.6,0.2-0.8,0.8-0.8c0.8,0,1.7,0,2.5,0c0.7,0,0.9-0.2,0.9-0.8c0-1.8,0-3.6,0.1-5.4c0.4-3.9,3.3-6.6,7.4-6.8
			c2.2-0.1,4.3-0.1,6.5-0.2c0.8,0,1.1,0.3,1,1c0,1.7-0.1,3.3,0,5c0,0.9-0.3,1.1-1.2,1.1c-0.9-0.1-1.8,0-2.7,0
			c-1.7,0.1-2.4,0.6-2.5,2.3c-0.1,1,0,1.9-0.1,2.9c0,0.6,0.3,0.7,0.8,0.7c1.5,0,3.1,0,4.6,0c0.7,0,0.9,0.2,0.8,0.9
			c-0.2,1.8-0.4,3.7-0.5,5.5c0,0.6-0.3,0.8-0.9,0.8C42,33.7,37.3,33.7,37.3,33.7z M35,0C16.2-0.5,0.6,14,0,32.5
			C-0.5,51,14.3,66.5,33,67c19.5,0.5,35.1-15,35-33.5C68.1,15.3,53.2,0.5,35,0L35,0z"/>
	</g>
</g>
</svg>
